<?xml version="1.0" encoding="UTF-8"?>
<svg id="Capa_2" data-name="Capa 2" xmlns="http://www.w3.org/2000/svg" viewBox="0 0 1113.94 431.75">
  <defs>
    <style>
      .cls-1 {
        fill: #c9e325;
        stroke: #c9e325;
        stroke-linecap: round;
      }

      .cls-1, .cls-2, .cls-3, .cls-4, .cls-5, .cls-6, .cls-7, .cls-8, .cls-9, .cls-10, .cls-11 {
        stroke-miterlimit: 10;
      }

      .cls-2 {
        fill: #9d9d9c;
      }

      .cls-2, .cls-5, .cls-7, .cls-9 {
        stroke: #9d9d9c;
      }

      .cls-3 {
        fill: #7e2082;
        stroke: #7e2082;
      }

      .cls-4 {
        fill: #f7f5c9;
        stroke: #f7f5c9;
      }

      .cls-5 {
        stroke-width: 8px;
      }

      .cls-5, .cls-7 {
        fill: #bac400;
      }

      .cls-6 {
        fill: #abbb35;
        stroke: #abbb35;
      }

      .cls-7, .cls-9 {
        stroke-width: 7px;
      }

      .cls-8, .cls-10 {
        fill: #471d4e;
        stroke: #471d4e;
      }

      .cls-9 {
        fill: none;
      }

      .cls-10 {
        stroke-width: 5px;
      }

      .cls-11 {
        fill: #d4dc5c;
        stroke: #d4dc5c;
      }
    </style>
  </defs>
  <g id="Capa_7" data-name="Capa 7">
    <path class="cls-2" d="m73.7,423.31l35.85-10.11L47.84,126.62c-2.93-13.59-16.67-21.92-30.07-18.24h0c-12.33,3.39-19.69,16.01-16.55,28.41l72.48,286.52Z"/>
    <path class="cls-2" d="m1006.64,414.11l66.57-292.2c2.37-10.39,12.39-17.17,22.92-15.49h0c11.75,1.87,19.46,13.31,16.78,24.9l-67.66,292.91-38.6-10.11Z"/>
    <path class="cls-2" d="m400.01,74.21c1.51-3.46,3.21-6.82,5.01-10.13C242.6,79.82,45.21,126.42,45.21,126.42l6.43,28.49s184.02-41.76,342.09-58.92c1.23-7.4,3.19-14.67,6.28-21.78Z"/>
    <path class="cls-2" d="m680.49,60.57c4.65,7.73,8.45,15.96,11.35,24.87.86,2.65,1.63,5.31,2.34,7.98,167.8,15.43,375.88,60.57,375.88,60.57l6.43-28.49s-225.58-50.95-396.01-64.93Z"/>
    <path class="cls-9" d="m684.1,317.85c24.98,3.16,50.18,4.06,75.38,7.66,4.5,0,9,.9,13.5,1.8,18,1.8,35.1,4.5,53.1,7.2,54.9,9,105.3,19.8,160.2,31.5,11.7,2.7,22.5,5.4,33.22,8.58"/>
    <path class="cls-9" d="m97.6,376.43c21.98-6.82,44.48-8.62,66.08-16.72,47.7-10.8,94.5-19.8,144-27,8.1-1.8,14.4-3.6,22.5-3.6,4.5-.9,8.1-1.8,12.6-2.7,2.7,0,6.3,0,8.87-.91"/>
    <path class="cls-9" d="m700.24,110.64c124.04,9.67,246.44,33.97,367.98,62.65"/>
    <path class="cls-9" d="m51.65,172.38c55.34-13.37,109.34-24.17,166.94-34.07,45-8.1,87.3-17.1,131.06-20.14"/>
    <path class="cls-9" d="m700.14,142.07c45.85,3.44,90.85,9.74,137.65,16.04,22.5,3.6,43.2,8.1,65.7,11.7,57.6,10.8,109.8,24.3,165.18,35.5"/>
    <path class="cls-9" d="m52.09,204.4c88.2-19.29,176.4-36.39,265.55-50.24"/>
    <path class="cls-9" d="m695.96,172.11c28.43,2.2,57.23,6.7,86.03,8.5,7.2.9,14.4,3.6,21.6,4.5,28.8,2.7,54.9,9,83.7,13.5,58.5,10.8,112.5,24.3,169.43,36.12"/>
    <path class="cls-9" d="m50.32,231.49c10.77-4.08,22.47-3.18,33.27-5.88,9-3.6,18.9-4.5,28.8-7.2.9,0,2.7-1.8,3.6-1.8,44.1-9,83.7-16.2,126.9-21.6,8.1-.9,15.3-1.8,22.5-4.5,2.7-1.8,6.3-2.7,9.9-3.6,10.8,0,20.7-2.7,31.92-3.81"/>
    <path class="cls-9" d="m684.82,198.74c23.87,1.72,47.71,3.98,71.48,6.72,23.47,2.7,46.88,5.87,70.24,9.41s47.37,7.54,70.98,11.75c23.95,4.26,47.86,8.7,71.65,13.81,22.87,4.91,45.66,10.14,68.41,15.56,2.82.67,5.65,1.35,8.47,2.03"/>
    <path class="cls-9" d="m53.05,262.08c82.74-21.17,168.24-35.57,252.44-48.46"/>
    <path class="cls-9" d="m700.47,227.66c44.62,4.25,88.72,8.75,134.62,16.85,50.4,9.9,97.2,14.4,147.6,27,19.8,4.5,38.7,9,58.82,13.6"/>
    <path class="cls-9" d="m68.77,287.02c80.51-16.41,159.71-33.51,240.56-45.29"/>
    <path class="cls-9" d="m680.46,257.41c9.73.6,19.63,1.5,30.43,2.4,66.6,10.8,128.7,16.2,195.3,27.9,23.4,4.5,45.9,7.2,68.4,13.5,19.8,6.3,39.6,8.1,58.59,14.87"/>
    <path class="cls-9" d="m81.56,316.17c78.52-19.46,157.72-32.06,237.46-44.31"/>
    <path class="cls-9" d="m649.11,289.07c23.08,1.34,47.38,2.24,70.78,4.94,5.4,0,9.9-.9,15.3,0,11.7,2.7,21.6,3.6,33.3,4.5,2.7,0,5.4,1.8,8.1,1.8,7.2,0,13.5,1.8,20.7,1.8,4.5.9,8.1,1.8,12.6,2.7,73.8,10.8,144,26.1,215.15,40.9"/>
    <path class="cls-9" d="m84.35,344.71c82.04-18.3,164.84-32.7,248.75-44.95"/>
    <line class="cls-5" x1="72.79" y1="142.96" x2="120.58" y2="363.56"/>
    <line class="cls-5" x1="105.88" y1="134.69" x2="150.91" y2="358.05"/>
    <line class="cls-5" x1="138.96" y1="133.77" x2="180.33" y2="350.69"/>
    <line class="cls-5" x1="170.22" y1="122.74" x2="209.74" y2="349.77"/>
    <line class="cls-5" x1="205.14" y1="117.23" x2="240.07" y2="337.82"/>
    <line class="cls-5" x1="233.64" y1="106.2" x2="268.56" y2="337.82"/>
    <line class="cls-5" x1="275.92" y1="108.04" x2="301.65" y2="334.15"/>
    <path class="cls-5" d="m323.82,282.44c.97,14.27,2.77,29.57,4.49,44.35"/>
    <path class="cls-5" d="m305.33,99.76c2.36,22.35,4.16,45.75,6.87,67.86"/>
    <line class="cls-5" x1="710.68" y1="85.98" x2="698.73" y2="313.93"/>
    <line class="cls-5" x1="744.68" y1="90.57" x2="727.22" y2="318.52"/>
    <line class="cls-5" x1="776.85" y1="94.25" x2="757.55" y2="324.96"/>
    <line class="cls-5" x1="811.78" y1="101.6" x2="785.13" y2="329.55"/>
    <line class="cls-5" x1="845.79" y1="104.36" x2="818.22" y2="334.15"/>
    <line class="cls-5" x1="877.96" y1="107.12" x2="847.63" y2="338.74"/>
    <line class="cls-5" x1="911.97" y1="115.39" x2="878.88" y2="342.42"/>
    <line class="cls-5" x1="944.14" y1="118.15" x2="907.37" y2="350.69"/>
    <line class="cls-5" x1="977.23" y1="127.34" x2="939.54" y2="355.29"/>
    <line class="cls-5" x1="1012.16" y1="134.69" x2="969.88" y2="361.72"/>
    <line class="cls-5" x1="1046.16" y1="139.29" x2="1000.21" y2="366.32"/>
    <path class="cls-7" d="m358.83,311.6c.51,5.36,1.05,10.73,1.64,16.12l-1.4-15.98c-.08-.05-.16-.09-.24-.14Z"/>
    <path class="cls-7" d="m342.7,125.24l-1.21-13.78c.24,4.66.5,9.32.95,13.99.09-.07.17-.14.26-.21Z"/>
    <path class="cls-7" d="m341.5,111.46c-.42-8.18-.8-16.36-2.16-24.56l2.16,24.56Z"/>
    <path class="cls-7" d="m374.43,110.14l-1.08-14.05c.25,4.7.57,9.41.91,14.12.06-.02.12-.05.18-.08Z"/>
  </g>
  <g id="Capa_1-2" data-name="Capa 1">
    <g>
      <path class="cls-1" d="m675.01,112.1c2.57-2.32,3.73-5.85,2.98-9.23C665.07,44.34,612.89.56,550.47.56c-7.56-.71-51.87,4.9-49.25,12.27,40.55,34.45,43.61,76.84,88.25,109.36,37.54,20.75,70.89,2.34,85.54-10.08Z"/>
      <path class="cls-1" d="m658.31,193.82c10.61,2.77,23.62-49.44,22.7-59.02.04-1.62-1.67-2.67-3.1-1.92-27.19,14.04-51.79,20.95-90.81,5.4-41.76-10.34-70.42-116.05-109.17-115.18-63.44,39.36-78.15,139.1-22.4,192.24,10.47,10.24,59.24-18.35,66.32-20.07,56.55-23.36,74.12-24.55,136.47-1.45Z"/>
      <path class="cls-1" d="m648.08,206.42c2.29,1.47,2.77,4.63.96,6.67-24.02,26.91-60.08,48.65-98.56,48.65-27.87,0-52.04-10.69-73.03-25.82-1.83-1.32-1.41-4.17.72-4.91,9.31-3.25,29.94-10.94,48.27-21.04,45.92-21.13,77.03-22.36,121.64-3.55Z"/>
    </g>
    <path class="cls-11" d="m554.03.61s41.14.59,72.26,24.2,43.2,50.16,46.69,61.01c-17.86-.17-53.49-14.55-59.47-18.32-6.29-3.97-24.04-13.79-39.27-32.86-5.17-6.48-20.07-32.48-20.21-34.03Z"/>
    <path class="cls-4" d="m608.01,49.12c13.92-2.37,65.62,32.54,64.82,45.34-1.22,6.54-10.8,5.41-17.03,2-7.12-3.91-11.31-14.84-14.37-20.16-9.3-16.15-27.83-26.74-33.43-27.18Z"/>
    <circle class="cls-4" cx="493.81" cy="234.9" r="2.99"/>
    <circle class="cls-4" cx="503.69" cy="230.76" r="3.53"/>
    <circle class="cls-4" cx="507.71" cy="238.58" r="3.73"/>
    <circle class="cls-4" cx="520" cy="233.75" r="3.61"/>
    <circle class="cls-4" cx="524.6" cy="242.25" r="3.49"/>
    <circle class="cls-4" cx="534.48" cy="231.8" r="4.96"/>
    <circle class="cls-4" cx="528.28" cy="220.31" r="4.38"/>
    <circle class="cls-4" cx="541.83" cy="214.79" r="4.47"/>
    <circle class="cls-4" cx="515.06" cy="226.17" r="2.92"/>
    <path class="cls-6" d="m630.74,146.61c-11.99.31-26.22-1.8-43.18-8.76-38.49-12.54-69.62-100.25-101.12-115.7-2.59-1.27-5.66-1.08-8.05.53-34.1,22.89-58.04,64.03-58.04,108.05,0,15.52,3.45,30.12,9.24,43.61-4.02-32.09,7.51-68.84,8.84-72.3,6.66-17.23,22.26-52.25,40.21-48.71,11.37,2.24,33.55,44.5,42.74,56.76,8.47,11.29,23.67,29.18,43.2,37.23,16.38,6.74,56.49,6.88,66.16-.7Z"/>
    <path class="cls-8" d="m686.43,220.31s-46.81,59.04-127.19,58.01c-37.48-.48-73.26-15.65-100.45-41.44-67.47-64.03-62.85-136.49-28.4-193.9,0,0-39.72,40.96-28.57,118.88,11.15,77.91,84.07,124.18,144.48,126.63,63.86,8.32,124.96-35.86,140.12-68.18Z"/>
    <path class="cls-8" d="m399.96,124.11c-85.94-.46-90.23,88.09-62.5,137.63s72.61,89.86,141.09,104.11c68.48,14.25,102.8-2.16,115.81-5.06,13.79-3.06,67.56-4.22,81.8,10.3l-1.66,5.18c-.88,2.74.35,5.71,2.9,7.03l86.86,45.02c12.08,6.26,26.95,2.14,34.09-9.45h0c7.08-11.5,2.94-26.59-9.02-32.86l-83.84-44.02c-2.29-1.2-5.12-.42-6.45,1.8-.56.94-1.1,1.68-1.43,1.68-33.4-15.01-72.61-46.74-83.95-65.5-7.05,1.77-13.33,3.27-13.33,3.27,0,0,19.76,30.67,39.68,41.7-18.69-1.23-46.57.31-53.92,5.51,15.93-16.24,11.95-45.34,11.95-45.34-13.17.92-14.4,3.06-14.4,3.06,0,0,6.43,22.06-16.24,36.46-22.67,14.4-71.39,27.57-134.81-4.9-63.42-32.48-100.04-99.09-87.21-142.77,12.83-43.68,54.12-41.67,54.12-41.67l.46-11.18Z"/>
    <path class="cls-10" d="m381.11,152.14c-.3.31-24.96,65.4-24.96,65.4"/>
    <path class="cls-10" d="m374.38,255.09c-1.23,0,33.08-83.03,33.08-83.03"/>
    <line class="cls-10" x1="393.68" y1="270.1" x2="417.74" y2="209.21"/>
    <line class="cls-10" x1="412.01" y1="292.77" x2="436.57" y2="230.14"/>
    <path class="cls-10" d="m434.74,306.26c.31-2.76,22.37-57.91,22.37-57.91"/>
    <path class="cls-10" d="m455.26,317.59s18-51.38,19.88-52.81"/>
    <line class="cls-10" x1="476.29" y1="323.72" x2="493.81" y2="277.3"/>
    <path class="cls-10" d="m496.8,331.99c.44-.92,18.63-47.8,18.27-46.88"/>
    <line class="cls-10" x1="532.65" y1="323.72" x2="546.3" y2="288.49"/>
    <path class="cls-10" d="m371.31,238.76c.92.09,146.93,90.78,146.93,90.78"/>
    <line class="cls-10" x1="543.14" y1="312.08" x2="352.04" y2="195.88"/>
    <line class="cls-10" x1="363.96" y1="172.06" x2="414.38" y2="202.77"/>
    <line class="cls-10" x1="379.12" y1="148.11" x2="401.83" y2="161.86"/>
    <line class="cls-10" x1="571.99" y1="296.54" x2="558.82" y2="289.51"/>
    <path class="cls-3" d="m518.24,367.23c23.73,5.97,72.9-15.4,83.7-12.87,13.56-4.6,75.6,7.81,75.83,15.86v9.88l88.01,43.89s3.45,2.3,10.11,0c-19.3-11.72-86.86-43.66-90.31-54l2.3-9.42-6.66,4.83s-39.75-22.75-70.54-19.53-42.78,7.58-57.35,11.72c-14.57,4.14-19.52,7.58-35.08,9.65Z"/>
  </g>
</svg>